%TF.GenerationSoftware,KiCad,Pcbnew,9.0.6*%
%TF.CreationDate,2026-04-12T21:41:35-07:00*%
%TF.ProjectId,Blinky Board,426c696e-6b79-4204-926f-6172642e6b69,rev?*%
%TF.SameCoordinates,Original*%
%TF.FileFunction,Copper,L2,Bot*%
%TF.FilePolarity,Positive*%
%FSLAX46Y46*%
G04 Gerber Fmt 4.6, Leading zero omitted, Abs format (unit mm)*
G04 Created by KiCad (PCBNEW 9.0.6) date 2026-04-12 21:41:35*
%MOMM*%
%LPD*%
G01*
G04 APERTURE LIST*
G04 Aperture macros list*
%AMRoundRect*
0 Rectangle with rounded corners*
0 $1 Rounding radius*
0 $2 $3 $4 $5 $6 $7 $8 $9 X,Y pos of 4 corners*
0 Add a 4 corners polygon primitive as box body*
4,1,4,$2,$3,$4,$5,$6,$7,$8,$9,$2,$3,0*
0 Add four circle primitives for the rounded corners*
1,1,$1+$1,$2,$3*
1,1,$1+$1,$4,$5*
1,1,$1+$1,$6,$7*
1,1,$1+$1,$8,$9*
0 Add four rect primitives between the rounded corners*
20,1,$1+$1,$2,$3,$4,$5,0*
20,1,$1+$1,$4,$5,$6,$7,0*
20,1,$1+$1,$6,$7,$8,$9,0*
20,1,$1+$1,$8,$9,$2,$3,0*%
G04 Aperture macros list end*
%TA.AperFunction,ComponentPad*%
%ADD10R,1.295400X1.295400*%
%TD*%
%TA.AperFunction,ComponentPad*%
%ADD11C,1.295400*%
%TD*%
%TA.AperFunction,ComponentPad*%
%ADD12RoundRect,0.250000X0.550000X-0.550000X0.550000X0.550000X-0.550000X0.550000X-0.550000X-0.550000X0*%
%TD*%
%TA.AperFunction,ComponentPad*%
%ADD13C,1.600000*%
%TD*%
%TA.AperFunction,ComponentPad*%
%ADD14RoundRect,0.412500X-0.412500X-0.412500X0.412500X-0.412500X0.412500X0.412500X-0.412500X0.412500X0*%
%TD*%
%TA.AperFunction,ComponentPad*%
%ADD15C,1.650000*%
%TD*%
%TA.AperFunction,ComponentPad*%
%ADD16R,1.700000X1.700000*%
%TD*%
%TA.AperFunction,ComponentPad*%
%ADD17C,1.700000*%
%TD*%
%TA.AperFunction,ComponentPad*%
%ADD18R,1.800000X1.800000*%
%TD*%
%TA.AperFunction,ComponentPad*%
%ADD19C,1.800000*%
%TD*%
%TA.AperFunction,ComponentPad*%
%ADD20C,2.000000*%
%TD*%
%TA.AperFunction,ComponentPad*%
%ADD21RoundRect,0.250000X-0.550000X-0.550000X0.550000X-0.550000X0.550000X0.550000X-0.550000X0.550000X0*%
%TD*%
%TA.AperFunction,ViaPad*%
%ADD22C,0.600000*%
%TD*%
%TA.AperFunction,Conductor*%
%ADD23C,0.200000*%
%TD*%
G04 APERTURE END LIST*
D10*
%TO.P,U2,1,Q5*%
%TO.N,Net-(D6-A)*%
X165234171Y-78801150D03*
D11*
%TO.P,U2,2,Q1*%
%TO.N,Net-(D2-A)*%
X162694171Y-78801150D03*
%TO.P,U2,3,Q0*%
%TO.N,Net-(D1-A)*%
X160154171Y-78801150D03*
%TO.P,U2,4,Q2*%
%TO.N,Net-(D3-A)*%
X157614171Y-78801150D03*
%TO.P,U2,5,Q6*%
%TO.N,Net-(D7-A)*%
X155074171Y-78801150D03*
%TO.P,U2,6,Q7*%
%TO.N,Net-(D8-A)*%
X152534171Y-78801150D03*
%TO.P,U2,7,Q3*%
%TO.N,Net-(D4-A)*%
X149994171Y-78801150D03*
%TO.P,U2,8,VSS*%
%TO.N,GND*%
X147454171Y-78801150D03*
%TO.P,U2,9,Q8*%
%TO.N,Net-(D9-A)*%
X147454171Y-86421150D03*
%TO.P,U2,10,Q4*%
%TO.N,Net-(D5-A)*%
X149994171Y-86421150D03*
%TO.P,U2,11,Q9*%
%TO.N,Net-(D10-A)*%
X152534171Y-86421150D03*
%TO.P,U2,12,Cout*%
%TO.N,unconnected-(U2-Cout-Pad12)*%
X155074171Y-86421150D03*
%TO.P,U2,13,CKEN*%
%TO.N,GND*%
X157614171Y-86421150D03*
%TO.P,U2,14,CLK*%
%TO.N,OUT*%
X160154171Y-86421150D03*
%TO.P,U2,15,Reset*%
%TO.N,GND*%
X162694171Y-86421150D03*
%TO.P,U2,16,VDD*%
%TO.N,+5V*%
X165234171Y-86421150D03*
%TD*%
D12*
%TO.P,U1,1,GND*%
%TO.N,GND*%
X169884171Y-86166150D03*
D13*
%TO.P,U1,2,TR*%
%TO.N,TR*%
X172424171Y-86166150D03*
%TO.P,U1,3,Q*%
%TO.N,OUT*%
X174964171Y-86166150D03*
%TO.P,U1,4,R*%
%TO.N,+5V*%
X177504171Y-86166150D03*
%TO.P,U1,5,CV*%
%TO.N,Net-(U1-CV)*%
X177504171Y-78546150D03*
%TO.P,U1,6,THR*%
%TO.N,TR*%
X174964171Y-78546150D03*
%TO.P,U1,7,DIS*%
%TO.N,Net-(U1-DIS)*%
X172424171Y-78546150D03*
%TO.P,U1,8,VCC*%
%TO.N,+5V*%
X169884171Y-78546150D03*
%TD*%
D14*
%TO.P,RV1,1,1*%
%TO.N,Net-(U1-DIS)*%
X171034171Y-70443650D03*
D15*
%TO.P,RV1,2,2*%
X173574171Y-70443650D03*
%TO.P,RV1,3,3*%
%TO.N,TR*%
X176114171Y-70443650D03*
%TD*%
D13*
%TO.P,R2,1*%
%TO.N,Net-(D1-K)*%
X170104171Y-101641150D03*
%TO.P,R2,2*%
%TO.N,GND*%
X170104171Y-109261150D03*
%TD*%
%TO.P,R1,1*%
%TO.N,+5V*%
X159324171Y-74771150D03*
%TO.P,R1,2*%
%TO.N,Net-(U1-DIS)*%
X166944171Y-74771150D03*
%TD*%
D16*
%TO.P,J2,1,Pin_1*%
%TO.N,OUT*%
X163114171Y-102391150D03*
%TD*%
%TO.P,J1,1,Pin_1*%
%TO.N,+5V*%
X163939171Y-109131150D03*
D17*
%TO.P,J1,2,Pin_2*%
%TO.N,GND*%
X166479171Y-109131150D03*
%TD*%
D18*
%TO.P,D10,1,K*%
%TO.N,Net-(D1-K)*%
X149754171Y-112521150D03*
D19*
%TO.P,D10,2,A*%
%TO.N,Net-(D10-A)*%
X152294171Y-112521150D03*
%TD*%
D18*
%TO.P,D9,1,K*%
%TO.N,Net-(D1-K)*%
X199154171Y-96631150D03*
D19*
%TO.P,D9,2,A*%
%TO.N,Net-(D9-A)*%
X201694171Y-96631150D03*
%TD*%
D18*
%TO.P,D8,1,K*%
%TO.N,Net-(D1-K)*%
X200434171Y-71231150D03*
D19*
%TO.P,D8,2,A*%
%TO.N,Net-(D8-A)*%
X202974171Y-71231150D03*
%TD*%
D18*
%TO.P,D7,1,K*%
%TO.N,Net-(D1-K)*%
X177394171Y-51161150D03*
D19*
%TO.P,D7,2,A*%
%TO.N,Net-(D7-A)*%
X179934171Y-51161150D03*
%TD*%
D18*
%TO.P,D6,1,K*%
%TO.N,Net-(D1-K)*%
X198894171Y-45581150D03*
D19*
%TO.P,D6,2,A*%
%TO.N,Net-(D6-A)*%
X201434171Y-45581150D03*
%TD*%
D18*
%TO.P,D5,1,K*%
%TO.N,Net-(D1-K)*%
X178674171Y-112091150D03*
D19*
%TO.P,D5,2,A*%
%TO.N,Net-(D5-A)*%
X181214171Y-112091150D03*
%TD*%
D18*
%TO.P,D4,1,K*%
%TO.N,Net-(D1-K)*%
X127314171Y-97841150D03*
D19*
%TO.P,D4,2,A*%
%TO.N,Net-(D4-A)*%
X129854171Y-97841150D03*
%TD*%
D18*
%TO.P,D3,1,K*%
%TO.N,Net-(D1-K)*%
X126094171Y-73021150D03*
D19*
%TO.P,D3,2,A*%
%TO.N,Net-(D3-A)*%
X128634171Y-73021150D03*
%TD*%
D18*
%TO.P,D2,1,K*%
%TO.N,Net-(D1-K)*%
X148894171Y-52231150D03*
D19*
%TO.P,D2,2,A*%
%TO.N,Net-(D2-A)*%
X151434171Y-52231150D03*
%TD*%
D18*
%TO.P,D1,1,K*%
%TO.N,Net-(D1-K)*%
X126444171Y-45581150D03*
D19*
%TO.P,D1,2,A*%
%TO.N,Net-(D1-A)*%
X128984171Y-45581150D03*
%TD*%
D20*
%TO.P,C2,1*%
%TO.N,GND*%
X182624171Y-84941150D03*
%TO.P,C2,2*%
%TO.N,Net-(U1-CV)*%
X182624171Y-79941150D03*
%TD*%
D21*
%TO.P,C1,1*%
%TO.N,TR*%
X176834171Y-92311150D03*
D13*
%TO.P,C1,2*%
%TO.N,GND*%
X178834171Y-92311150D03*
%TD*%
D22*
%TO.N,Net-(D8-A)*%
X153604171Y-85181150D03*
%TO.N,GND*%
X178784171Y-100351150D03*
%TO.N,Net-(D5-A)*%
X149914171Y-90481150D03*
X153564171Y-95401150D03*
%TD*%
D23*
%TO.N,Net-(D8-A)*%
X153604171Y-87251150D02*
X153604171Y-85181150D01*
X177044171Y-97161150D02*
X163514171Y-97161150D01*
X202974171Y-71231150D02*
X177044171Y-97161150D01*
X163514171Y-97161150D02*
X153604171Y-87251150D01*
%TO.N,GND*%
X178784171Y-100581150D02*
X178784171Y-100351150D01*
X170104171Y-109261150D02*
X178784171Y-100581150D01*
%TO.N,Net-(D5-A)*%
X149914171Y-91751150D02*
X149914171Y-90481150D01*
X153564171Y-95401150D02*
X149914171Y-91751150D01*
%TO.N,Net-(D9-A)*%
X159464171Y-98431150D02*
X147454171Y-86421150D01*
X199894171Y-98431150D02*
X159464171Y-98431150D01*
X201694171Y-96631150D02*
X199894171Y-98431150D01*
%TO.N,GND*%
X155464171Y-84271150D02*
X157614171Y-86421150D01*
X152924171Y-84271150D02*
X155464171Y-84271150D01*
X147454171Y-78801150D02*
X152924171Y-84271150D01*
X158994171Y-87801150D02*
X157614171Y-86421150D01*
X161314171Y-87801150D02*
X158994171Y-87801150D01*
X162694171Y-86421150D02*
X161314171Y-87801150D01*
X164304171Y-88031150D02*
X162694171Y-86421150D01*
X168019171Y-88031150D02*
X164304171Y-88031150D01*
X169884171Y-86166150D02*
X168019171Y-88031150D01*
%TO.N,+5V*%
X169884171Y-81771150D02*
X169884171Y-78546150D01*
X165234171Y-86421150D02*
X169884171Y-81771150D01*
%TO.N,TR*%
X172424171Y-81086150D02*
X174964171Y-78546150D01*
X172424171Y-86166150D02*
X172424171Y-81086150D01*
X176834171Y-92311150D02*
X176834171Y-90576150D01*
X176834171Y-90576150D02*
X172424171Y-86166150D01*
%TO.N,Net-(D6-A)*%
X166924171Y-77111150D02*
X165234171Y-78801150D01*
X201434171Y-46853942D02*
X171176963Y-77111150D01*
X201434171Y-45581150D02*
X201434171Y-46853942D01*
X171176963Y-77111150D02*
X166924171Y-77111150D01*
%TO.N,Net-(D7-A)*%
X161324171Y-72391150D02*
X161324171Y-79681150D01*
X179934171Y-53781150D02*
X161324171Y-72391150D01*
X161324171Y-79681150D02*
X160474171Y-80531150D01*
X156804171Y-80531150D02*
X155074171Y-78801150D01*
X179934171Y-51161150D02*
X179934171Y-53781150D01*
X160474171Y-80531150D02*
X156804171Y-80531150D01*
%TO.N,Net-(D1-A)*%
X128984171Y-47631150D02*
X160154171Y-78801150D01*
X128984171Y-45581150D02*
X128984171Y-47631150D01*
%TD*%
M02*
