%TF.GenerationSoftware,KiCad,Pcbnew,9.0.6*%
%TF.CreationDate,2026-04-12T21:41:35-07:00*%
%TF.ProjectId,Blinky Board,426c696e-6b79-4204-926f-6172642e6b69,rev?*%
%TF.SameCoordinates,Original*%
%TF.FileFunction,Soldermask,Bot*%
%TF.FilePolarity,Negative*%
%FSLAX46Y46*%
G04 Gerber Fmt 4.6, Leading zero omitted, Abs format (unit mm)*
G04 Created by KiCad (PCBNEW 9.0.6) date 2026-04-12 21:41:35*
%MOMM*%
%LPD*%
G01*
G04 APERTURE LIST*
G04 Aperture macros list*
%AMRoundRect*
0 Rectangle with rounded corners*
0 $1 Rounding radius*
0 $2 $3 $4 $5 $6 $7 $8 $9 X,Y pos of 4 corners*
0 Add a 4 corners polygon primitive as box body*
4,1,4,$2,$3,$4,$5,$6,$7,$8,$9,$2,$3,0*
0 Add four circle primitives for the rounded corners*
1,1,$1+$1,$2,$3*
1,1,$1+$1,$4,$5*
1,1,$1+$1,$6,$7*
1,1,$1+$1,$8,$9*
0 Add four rect primitives between the rounded corners*
20,1,$1+$1,$2,$3,$4,$5,0*
20,1,$1+$1,$4,$5,$6,$7,0*
20,1,$1+$1,$6,$7,$8,$9,0*
20,1,$1+$1,$8,$9,$2,$3,0*%
G04 Aperture macros list end*
%ADD10R,1.295400X1.295400*%
%ADD11C,1.295400*%
%ADD12RoundRect,0.250000X0.550000X-0.550000X0.550000X0.550000X-0.550000X0.550000X-0.550000X-0.550000X0*%
%ADD13C,1.600000*%
%ADD14RoundRect,0.412500X-0.412500X-0.412500X0.412500X-0.412500X0.412500X0.412500X-0.412500X0.412500X0*%
%ADD15C,1.650000*%
%ADD16R,1.700000X1.700000*%
%ADD17C,1.700000*%
%ADD18R,1.800000X1.800000*%
%ADD19C,1.800000*%
%ADD20C,2.000000*%
%ADD21RoundRect,0.250000X-0.550000X-0.550000X0.550000X-0.550000X0.550000X0.550000X-0.550000X0.550000X0*%
G04 APERTURE END LIST*
D10*
%TO.C,U2*%
X165234171Y-78801150D03*
D11*
X162694171Y-78801150D03*
X160154171Y-78801150D03*
X157614171Y-78801150D03*
X155074171Y-78801150D03*
X152534171Y-78801150D03*
X149994171Y-78801150D03*
X147454171Y-78801150D03*
X147454171Y-86421150D03*
X149994171Y-86421150D03*
X152534171Y-86421150D03*
X155074171Y-86421150D03*
X157614171Y-86421150D03*
X160154171Y-86421150D03*
X162694171Y-86421150D03*
X165234171Y-86421150D03*
%TD*%
D12*
%TO.C,U1*%
X169884171Y-86166150D03*
D13*
X172424171Y-86166150D03*
X174964171Y-86166150D03*
X177504171Y-86166150D03*
X177504171Y-78546150D03*
X174964171Y-78546150D03*
X172424171Y-78546150D03*
X169884171Y-78546150D03*
%TD*%
D14*
%TO.C,RV1*%
X171034171Y-70443650D03*
D15*
X173574171Y-70443650D03*
X176114171Y-70443650D03*
%TD*%
D13*
%TO.C,R2*%
X170104171Y-101641150D03*
X170104171Y-109261150D03*
%TD*%
%TO.C,R1*%
X159324171Y-74771150D03*
X166944171Y-74771150D03*
%TD*%
D16*
%TO.C,J2*%
X163114171Y-102391150D03*
%TD*%
%TO.C,J1*%
X163939171Y-109131150D03*
D17*
X166479171Y-109131150D03*
%TD*%
D18*
%TO.C,D10*%
X149754171Y-112521150D03*
D19*
X152294171Y-112521150D03*
%TD*%
D18*
%TO.C,D9*%
X199154171Y-96631150D03*
D19*
X201694171Y-96631150D03*
%TD*%
D18*
%TO.C,D8*%
X200434171Y-71231150D03*
D19*
X202974171Y-71231150D03*
%TD*%
D18*
%TO.C,D7*%
X177394171Y-51161150D03*
D19*
X179934171Y-51161150D03*
%TD*%
D18*
%TO.C,D6*%
X198894171Y-45581150D03*
D19*
X201434171Y-45581150D03*
%TD*%
D18*
%TO.C,D5*%
X178674171Y-112091150D03*
D19*
X181214171Y-112091150D03*
%TD*%
D18*
%TO.C,D4*%
X127314171Y-97841150D03*
D19*
X129854171Y-97841150D03*
%TD*%
D18*
%TO.C,D3*%
X126094171Y-73021150D03*
D19*
X128634171Y-73021150D03*
%TD*%
D18*
%TO.C,D2*%
X148894171Y-52231150D03*
D19*
X151434171Y-52231150D03*
%TD*%
D18*
%TO.C,D1*%
X126444171Y-45581150D03*
D19*
X128984171Y-45581150D03*
%TD*%
D20*
%TO.C,C2*%
X182624171Y-84941150D03*
X182624171Y-79941150D03*
%TD*%
D21*
%TO.C,C1*%
X176834171Y-92311150D03*
D13*
X178834171Y-92311150D03*
%TD*%
M02*
